<?xml version="1.0" standalone="no"?>
<!DOCTYPE svg PUBLIC "-//W3C//DTD SVG 20010904//EN"
 "http://www.w3.org/TR/2001/REC-SVG-20010904/DTD/svg10.dtd">
<svg version="1.0" xmlns="http://www.w3.org/2000/svg"
 width="232.000000pt" height="232.000000pt" viewBox="0 0 232.000000 232.000000"
 preserveAspectRatio="xMidYMid meet">
<metadata>
Created by potrace 1.14, written by Peter Selinger 2001-2017
</metadata>
<g transform="translate(0.000000,232.000000) scale(0.100000,-0.100000)"
fill="#000000" stroke="none">
<path d="M778 2139 c-143 -11 -291 -36 -336 -56 -20 -9 -40 -15 -44 -15 -13 3
-131 -124 -180 -193 -65 -91 -117 -196 -159 -320 l-34 -100 0 -205 0 -205 33
-99 c141 -420 471 -706 900 -781 109 -19 306 -19 414 0 389 68 730 345 868
706 60 158 77 411 40 601 -29 153 -70 250 -160 383 -51 74 -166 205 -181 205
-5 0 -9 -29 -9 -65 0 -64 1 -68 48 -124 92 -110 158 -240 198 -387 27 -99 27
-369 0 -469 -128 -472 -568 -788 -1065 -762 -459 24 -849 331 -963 757 -32
123 -32 357 0 480 31 116 108 269 187 367 60 77 65 87 65 132 l0 50 44 -20
c176 -78 1015 -92 1356 -23 236 48 106 116 -275 144 -161 11 -590 11 -747 -1z"/>
<path d="M420 1865 c0 -3 6 -16 14 -28 18 -27 60 -228 75 -355 17 -135 14
-427 -4 -567 -21 -160 -53 -306 -73 -328 -28 -31 -4 -30 100 3 323 102 565
271 621 435 l12 35 55 -41 c76 -58 177 -104 295 -136 82 -22 123 -27 225 -27
142 -1 179 11 240 80 58 67 75 117 75 224 0 89 -2 99 -34 158 -40 73 -74 105
-151 141 -50 24 -65 26 -175 25 -191 -2 -357 -58 -472 -159 -28 -25 -54 -45
-57 -45 -2 0 -20 28 -38 62 -43 81 -166 204 -283 284 -135 91 -425 255 -425
239z m303 -276 c186 -94 266 -161 316 -268 23 -49 26 -69 26 -156 0 -89 -3
-106 -28 -156 -52 -107 -150 -177 -313 -224 -114 -33 -118 -33 -110 8 47 228
50 601 6 792 -11 47 -12 55 -5 55 3 0 51 -23 108 -51z m1003 -227 c175 -91
162 -351 -20 -402 -98 -27 -288 5 -393 66 -59 35 -123 108 -123 140 0 73 109
165 245 206 85 25 234 20 291 -10z"/>
<path d="M1632 1263 c2 -10 12 -18 23 -18 11 0 21 8 23 18 3 13 -3 17 -23 17
-20 0 -26 -4 -23 -17z"/>
<path d="M1458 1579 c-21 -11 -38 -22 -38 -25 0 -13 35 -64 44 -64 24 0 96 34
96 44 0 12 -51 66 -61 66 -2 -1 -21 -10 -41 -21z"/>
<path d="M1297 1495 c-32 -22 -36 -30 -31 -53 9 -38 10 -38 60 -14 39 19 44
26 39 45 -14 44 -28 49 -68 22z"/>
</g>
</svg>
