<svg xmlns="http://www.w3.org/2000/svg" xmlns:svgjs="http://svgjs.com/svgjs" xmlns:xlink="http://www.w3.org/1999/xlink" width="1440" height="560" preserveAspectRatio="none" version="1.1" viewBox="0 0 1440 560"><g fill="none" mask="url(&quot;#SvgjsMask2285&quot;)"><rect width="1440" height="560" x="0" y="0" fill="rgba(255, 255, 255, 1)"/><use fill="rgba(239, 239, 239, 1)" transform="translate(0, 0)" xlink:href="#SvgjsG2293"/><use fill="rgba(239, 239, 239, 1)" transform="translate(900, 0)" xlink:href="#SvgjsG2293"/></g><defs><mask id="SvgjsMask2285"><rect width="1440" height="560" fill="#fff"/></mask><g id="SvgjsG2289"><path d="M11.063 3.332A1.177 1.177 0 1 0 11.058 0.978a1.177 1.177 0 0 0 0.005 2.354z"/><path d="M5.182 6.316a0.59 0.59 0 1 1-0.85-0.817l1.974-2.272a0.592 0.592 0 0 1 0.455-0.214H9.618a0.764 0.764 0 0 1 0.538 0.217L11.977 5.049l1.511-1.506a0.61 0.61 0 0 1 0.866 0.853L12.533 6.235c-0.551 0.551-0.996 0.082-0.995 0.081l-1.12-1.12-1.742 2.016 1.6 1.6s0.334 0.313 0.142 0.936L9.522 13.742a0.764 0.764 0 1 1-1.481-0.345l0.736-3.276-1.813-1.767-1.565 1.742s-0.254 0.309-0.924 0.284l-3.168 0.009A0.764 0.764 0 0 1 0.551 9.796a0.747 0.747 0 0 1 0.761-0.925l2.725 0.013 4.036-4.676-1.053-0.004-1.834 2.112z"/></g><g id="SvgjsG2288"><path d="M3.236 14.219c1.457 0 2.639-1.182 2.639-2.641 0-1.454-1.182-2.637-2.639-2.637-1.453 0-2.636 1.182-2.636 2.638 0 1.459 1.182 2.641 2.636 2.642zM0 11.578c0-1.787 1.452-3.234 3.236-3.234 1.789 0 3.239 1.446 3.239 3.234 0 1.79-1.45 3.237-3.239 3.237C1.452 14.815 0 13.367 0 11.578z m12.764 2.671c1.453 0 2.636-1.18 2.636-2.639 0-1.457-1.182-2.637-2.636-2.637-1.457 0-2.639 1.181-2.639 2.638 0 1.459 1.182 2.64 2.639 2.64zM9.525 11.61c0-1.789 1.452-3.236 3.239-3.236 1.784 0 3.236 1.446 3.236 3.236s-1.452 3.237-3.236 3.237c-1.788 0-3.239-1.448-3.239-3.237z m0.009-7.898c0.672 0 1.218-0.542 1.218-1.214S10.206 1.28 9.534 1.28s-1.218 0.546-1.218 1.218 0.546 1.214 1.218 1.214z"/><path d="M9.584 6.666c-0.176 0.004-0.366-0.084-0.506-0.306l-0.791-1.235-1.631 1.614 1.513 0.795c0.622 0.298 0.528 0.844 0.528 0.844v3.424c0 0.388-0.312 0.704-0.701 0.704s-0.701-0.316-0.7-0.704V9.062l-2.623-1.457a1.02 1.02 0 0 1-0.525-0.889 1.003 1.003 0 0 1 0.262-0.683l2.573-2.577c0.32-0.362 0.765-0.304 0.765-0.304 0.539 0 0.823 0.47 0.823 0.47l1.337 2.095 2.03-0.004c0.729 0 0.729 0.952 0 0.952h-2.353z"/></g><g id="SvgjsG2287"><path fill-rule="evenodd" d="M6.038 10.472H10.08v3.613c0 0.594 0.479 1.073 1.073 1.073s1.066-0.479 1.066-1.073V10.472c0.322 0 0.358-0.207 0.358-0.451V7.323l-3.384-1.652H2.004l-0.923-0.526c-0.3-0.169-0.679-0.061-0.844 0.232a0.613 0.613 0 0 0 0.234 0.844l1.458 0.838v7.026a1.071 1.071 0 0 0 1.073 1.073c0.587 0 1.066-0.479 1.065-1.073v-2.754L6 14.607c0.309 0.508 0.966 0.673 1.467 0.372a1.073 1.073 0 0 0 0.372-1.466l-1.803-3.041z m3.484-5.538l3.047 1.452v-0.573h2.476l0.908-1.96L9.522 0.791v4.143z"/></g><g id="SvgjsG2290"><path d="M16 13.788a2.347 2.347 0 0 1-0.984-0.217 2.437 2.437 0 0 0-1.014-0.226c-0.364 0-0.71 0.085-1.016 0.225a2.346 2.346 0 0 1-0.984 0.218c-0.35 0-0.686-0.079-0.984-0.218-0.311-0.14-0.658-0.225-1.016-0.225-0.362 0-0.709 0.085-1.017 0.225a2.353 2.353 0 0 1-0.984 0.218c-0.35 0-0.684-0.079-0.986-0.218-0.307-0.14-0.653-0.225-1.012-0.225-0.362 0-0.709 0.085-1.016 0.225a2.359 2.359 0 0 1-0.988 0.218c-0.345 0-0.684-0.079-0.983-0.218-0.307-0.14-0.654-0.225-1.016-0.225-0.36 0-0.705 0.085-1.012 0.225A2.375 2.375 0 0 1 0 13.788v-1.493c0.35 0 0.684-0.082 0.988-0.214a2.386 2.386 0 0 1 1.012-0.229c0.362 0 0.709 0.085 1.016 0.229 0.298 0.133 0.637 0.214 0.982 0.214 0.35 0 0.69-0.082 0.988-0.214a2.394 2.394 0 0 1 1.017-0.229c0.359 0 0.705 0.085 1.011 0.229 0.302 0.133 0.636 0.214 0.987 0.214 0.347 0 0.686-0.082 0.984-0.214a2.396 2.396 0 0 1 1.016-0.229c0.358 0 0.705 0.085 1.016 0.229 0.298 0.133 0.634 0.214 0.984 0.214 0.35 0 0.684-0.082 0.984-0.214a2.386 2.386 0 0 1 1.016-0.229c0.362 0 0.709 0.085 1.015 0.229 0.3 0.133 0.634 0.214 0.984 0.214v1.493z m-2.317-4.224c1.051 0 1.903-0.866 1.903-1.928 0-1.063-0.852-1.925-1.903-1.925-1.053 0-1.904 0.862-1.904 1.925 0 1.063 0.776 1.929 1.904 1.929z"/><path d="M2.597 10.648c0.148 0.036 0.287 0.088 0.419 0.148a2.38 2.38 0 0 0 0.983 0.218c0.35 0 0.69-0.081 0.988-0.218 0.307-0.141 0.653-0.23 1.016-0.229 0.359 0 0.705 0.089 1.012 0.229 0.302 0.136 0.636 0.218 0.986 0.218 0.347 0 0.686-0.081 0.984-0.218 0.307-0.141 0.654-0.23 1.016-0.229 0.358 0 0.705 0.089 1.016 0.229a2.37 2.37 0 0 0 0.984 0.218 2.429 2.429 0 0 0 0.733-0.117l-3.175-5.794 3.693-0.681c0.542-0.104 0.936-0.535 0.935-1.087 0-0.608-0.49-1.095-1.087-1.095-0.043 0-0.083 0-0.124 0.004l-5.704 1.05c-0.4 0.093-0.931 0.685-0.629 1.413l0.049 0.117 1.489 2.718L2.597 10.648z"/></g><g id="SvgjsG2292"><path d="M15.964 4.774l-1.312 10.327H10.223L8.916 4.774h5.408L15.395 1.04 16 1.21l-1.024 3.562 0.988 0.002zM8.29 10.788s0.166-1.502-2.131-1.502H2.5c-2.293 0-2.131 1.502-2.132 1.502h7.922zM0.368 13.595s-0.162 1.506 2.132 1.506h3.659c2.297 0 2.131-1.506 2.131-1.506H0.369z m7.578-0.727a0.68 0.68 0 0 0 0.68-0.68c0-0.372-0.304-0.676-0.68-0.676H0.68C0.306 11.512 0 11.816 0 12.188a0.682 0.682 0 0 0 0.68 0.68h7.266z"/></g><g id="SvgjsG2286"><path d="M1.811 9.858c1.002 0 1.815-0.813 1.815-1.816 0-1-0.813-1.811-1.815-1.81C0.811 6.232 0 7.042 0 8.043c0 1.002 0.811 1.815 1.811 1.815m10.166 3.116c0.084-0.057 0.196-0.041 0.258 0.042l0.335 0.463c0.057 0.08 0.038 0.196-0.041 0.258L10.068 15.525c-0.08 0.059-0.196 0.041-0.258-0.038l-0.336-0.466c-0.057-0.08-0.039-0.194 0.041-0.258L11.976 12.974zM9.193 10.668l-0.977-1.712-0.512 0.374 0.976 1.722 0.513-0.384zM6.914 6.668L3.117 0l-0.727 0.004L6.396 7.046l0.518-0.378z"/><path d="M10.49 10.196c0.215-0.155 0.461-0.276 0.742-0.277l3.528 0.005c0.685 0 1.24 0.557 1.24 1.24a1.238 1.238 0 0 1-1.24 1.24l-2.943-0.005L8.056 15.052c-1.324 0.954-2.128-0.094-2.128-0.093L2.978 12.006c-0.493-0.594-0.388-1.722 0.205-2.219l4.083-2.909a0.966 0.966 0 0 1 1.352 0.116c0.34 0.406 0.286 1.011-0.121 1.352l-2.613 1.914L7.762 12.114l2.728-1.918z"/></g><g id="SvgjsG2291"><path d="M15.065 12.151H0.02c0 1.333 1.015 1.95 1.83 1.95h11.386c0.975 0 1.83-0.767 1.829-1.951zM12.853 2.166H1.869v7.208c0 0.976 0.843 1.75 1.755 1.75h7.121c1.031 0 1.731-0.863 1.731-1.749V8.773c2.031 0 3.505-1.527 3.505-3.303 0-1.815-1.445-3.303-3.126-3.303z m1.832 3.305c0 1.036-0.763 2.025-2.21 1.931V3.519l0.378 0 0 0.001c1.391 0 1.837 1.318 1.832 1.952v-0.001z"/></g><g id="SvgjsG2293"><use fill="rgba(239, 239, 239, 1)" transform="translate(0, 0) scale(1.8)" xlink:href="#SvgjsG2286"/><use fill="rgba(239, 239, 239, 1)" transform="translate(0, 90) scale(1.8)" xlink:href="#SvgjsG2287"/><use fill="rgba(239, 239, 239, 1)" transform="translate(0, 180) scale(1.8)" xlink:href="#SvgjsG2287"/><use fill="rgba(239, 239, 239, 1)" transform="translate(0, 270) scale(1.8)" xlink:href="#SvgjsG2288"/><use fill="rgba(239, 239, 239, 1)" transform="translate(0, 360) scale(1.8)" xlink:href="#SvgjsG2289"/><use fill="rgba(239, 239, 239, 1)" transform="translate(0, 450) scale(1.8)" xlink:href="#SvgjsG2290"/><use fill="rgba(239, 239, 239, 1)" transform="translate(0, 540) scale(1.8)" xlink:href="#SvgjsG2290"/><use fill="rgba(239, 239, 239, 1)" transform="translate(90, 0) scale(1.8)" xlink:href="#SvgjsG2289"/><use fill="rgba(239, 239, 239, 1)" transform="translate(90, 90) scale(1.8)" xlink:href="#SvgjsG2291"/><use fill="rgba(239, 239, 239, 1)" transform="translate(90, 180) scale(1.8)" xlink:href="#SvgjsG2288"/><use fill="rgba(239, 239, 239, 1)" transform="translate(90, 270) scale(1.8)" xlink:href="#SvgjsG2290"/><use fill="rgba(239, 239, 239, 1)" transform="translate(90, 360) scale(1.8)" xlink:href="#SvgjsG2286"/><use fill="rgba(239, 239, 239, 1)" transform="translate(90, 450) scale(1.8)" xlink:href="#SvgjsG2292"/><use fill="rgba(239, 239, 239, 1)" transform="translate(90, 540) scale(1.8)" xlink:href="#SvgjsG2291"/><use fill="rgba(239, 239, 239, 1)" transform="translate(180, 0) scale(1.8)" xlink:href="#SvgjsG2288"/><use fill="rgba(239, 239, 239, 1)" transform="translate(180, 90) scale(1.8)" xlink:href="#SvgjsG2289"/><use fill="rgba(239, 239, 239, 1)" transform="translate(180, 180) scale(1.8)" xlink:href="#SvgjsG2286"/><use fill="rgba(239, 239, 239, 1)" transform="translate(180, 270) scale(1.8)" xlink:href="#SvgjsG2290"/><use fill="rgba(239, 239, 239, 1)" transform="translate(180, 360) scale(1.8)" xlink:href="#SvgjsG2288"/><use fill="rgba(239, 239, 239, 1)" transform="translate(180, 450) scale(1.8)" xlink:href="#SvgjsG2291"/><use fill="rgba(239, 239, 239, 1)" transform="translate(180, 540) scale(1.8)" xlink:href="#SvgjsG2287"/><use fill="rgba(239, 239, 239, 1)" transform="translate(270, 0) scale(1.8)" xlink:href="#SvgjsG2288"/><use fill="rgba(239, 239, 239, 1)" transform="translate(270, 90) scale(1.8)" xlink:href="#SvgjsG2289"/><use fill="rgba(239, 239, 239, 1)" transform="translate(270, 180) scale(1.8)" xlink:href="#SvgjsG2289"/><use fill="rgba(239, 239, 239, 1)" transform="translate(270, 270) scale(1.8)" xlink:href="#SvgjsG2291"/><use fill="rgba(239, 239, 239, 1)" transform="translate(270, 360) scale(1.8)" xlink:href="#SvgjsG2292"/><use fill="rgba(239, 239, 239, 1)" transform="translate(270, 450) scale(1.8)" xlink:href="#SvgjsG2286"/><use fill="rgba(239, 239, 239, 1)" transform="translate(270, 540) scale(1.8)" xlink:href="#SvgjsG2286"/><use fill="rgba(239, 239, 239, 1)" transform="translate(360, 0) scale(1.8)" xlink:href="#SvgjsG2292"/><use fill="rgba(239, 239, 239, 1)" transform="translate(360, 90) scale(1.8)" xlink:href="#SvgjsG2291"/><use fill="rgba(239, 239, 239, 1)" transform="translate(360, 180) scale(1.8)" xlink:href="#SvgjsG2290"/><use fill="rgba(239, 239, 239, 1)" transform="translate(360, 270) scale(1.8)" xlink:href="#SvgjsG2291"/><use fill="rgba(239, 239, 239, 1)" transform="translate(360, 360) scale(1.8)" xlink:href="#SvgjsG2286"/><use fill="rgba(239, 239, 239, 1)" transform="translate(360, 450) scale(1.8)" xlink:href="#SvgjsG2288"/><use fill="rgba(239, 239, 239, 1)" transform="translate(360, 540) scale(1.8)" xlink:href="#SvgjsG2288"/><use fill="rgba(239, 239, 239, 1)" transform="translate(450, 0) scale(1.8)" xlink:href="#SvgjsG2292"/><use fill="rgba(239, 239, 239, 1)" transform="translate(450, 90) scale(1.8)" xlink:href="#SvgjsG2292"/><use fill="rgba(239, 239, 239, 1)" transform="translate(450, 180) scale(1.8)" xlink:href="#SvgjsG2292"/><use fill="rgba(239, 239, 239, 1)" transform="translate(450, 270) scale(1.8)" xlink:href="#SvgjsG2290"/><use fill="rgba(239, 239, 239, 1)" transform="translate(450, 360) scale(1.8)" xlink:href="#SvgjsG2287"/><use fill="rgba(239, 239, 239, 1)" transform="translate(450, 450) scale(1.8)" xlink:href="#SvgjsG2289"/><use fill="rgba(239, 239, 239, 1)" transform="translate(450, 540) scale(1.8)" xlink:href="#SvgjsG2291"/><use fill="rgba(239, 239, 239, 1)" transform="translate(540, 0) scale(1.8)" xlink:href="#SvgjsG2289"/><use fill="rgba(239, 239, 239, 1)" transform="translate(540, 90) scale(1.8)" xlink:href="#SvgjsG2292"/><use fill="rgba(239, 239, 239, 1)" transform="translate(540, 180) scale(1.8)" xlink:href="#SvgjsG2288"/><use fill="rgba(239, 239, 239, 1)" transform="translate(540, 270) scale(1.8)" xlink:href="#SvgjsG2287"/><use fill="rgba(239, 239, 239, 1)" transform="translate(540, 360) scale(1.8)" xlink:href="#SvgjsG2290"/><use fill="rgba(239, 239, 239, 1)" transform="translate(540, 450) scale(1.8)" xlink:href="#SvgjsG2287"/><use fill="rgba(239, 239, 239, 1)" transform="translate(540, 540) scale(1.8)" xlink:href="#SvgjsG2287"/><use fill="rgba(239, 239, 239, 1)" transform="translate(630, 0) scale(1.8)" xlink:href="#SvgjsG2286"/><use fill="rgba(239, 239, 239, 1)" transform="translate(630, 90) scale(1.8)" xlink:href="#SvgjsG2292"/><use fill="rgba(239, 239, 239, 1)" transform="translate(630, 180) scale(1.8)" xlink:href="#SvgjsG2287"/><use fill="rgba(239, 239, 239, 1)" transform="translate(630, 270) scale(1.8)" xlink:href="#SvgjsG2286"/><use fill="rgba(239, 239, 239, 1)" transform="translate(630, 360) scale(1.8)" xlink:href="#SvgjsG2288"/><use fill="rgba(239, 239, 239, 1)" transform="translate(630, 450) scale(1.8)" xlink:href="#SvgjsG2286"/><use fill="rgba(239, 239, 239, 1)" transform="translate(630, 540) scale(1.8)" xlink:href="#SvgjsG2292"/><use fill="rgba(239, 239, 239, 1)" transform="translate(720, 0) scale(1.8)" xlink:href="#SvgjsG2291"/><use fill="rgba(239, 239, 239, 1)" transform="translate(720, 90) scale(1.8)" xlink:href="#SvgjsG2288"/><use fill="rgba(239, 239, 239, 1)" transform="translate(720, 180) scale(1.8)" xlink:href="#SvgjsG2288"/><use fill="rgba(239, 239, 239, 1)" transform="translate(720, 270) scale(1.8)" xlink:href="#SvgjsG2290"/><use fill="rgba(239, 239, 239, 1)" transform="translate(720, 360) scale(1.8)" xlink:href="#SvgjsG2287"/><use fill="rgba(239, 239, 239, 1)" transform="translate(720, 450) scale(1.8)" xlink:href="#SvgjsG2290"/><use fill="rgba(239, 239, 239, 1)" transform="translate(720, 540) scale(1.8)" xlink:href="#SvgjsG2289"/><use fill="rgba(239, 239, 239, 1)" transform="translate(810, 0) scale(1.8)" xlink:href="#SvgjsG2291"/><use fill="rgba(239, 239, 239, 1)" transform="translate(810, 90) scale(1.8)" xlink:href="#SvgjsG2291"/><use fill="rgba(239, 239, 239, 1)" transform="translate(810, 180) scale(1.8)" xlink:href="#SvgjsG2292"/><use fill="rgba(239, 239, 239, 1)" transform="translate(810, 270) scale(1.8)" xlink:href="#SvgjsG2286"/><use fill="rgba(239, 239, 239, 1)" transform="translate(810, 360) scale(1.8)" xlink:href="#SvgjsG2292"/><use fill="rgba(239, 239, 239, 1)" transform="translate(810, 450) scale(1.8)" xlink:href="#SvgjsG2292"/><use fill="rgba(239, 239, 239, 1)" transform="translate(810, 540) scale(1.8)" xlink:href="#SvgjsG2292"/></g></defs></svg>